# Blender v3.3.0 OBJ File: 'scene.blend'
# www.blender.org
mtllib walls.mtl
o room_Cube.003
v -6.000000 0.000000 7.000000
v -6.000000 4.000000 7.000000
v -6.000000 0.000000 -7.000000
v -6.000000 4.000000 -7.000000
v 1.000000 0.000000 7.000000
v 1.000000 4.000000 7.000000
v 1.000000 0.000000 -7.000000
v 1.000000 4.000000 -7.000000
v -6.000000 0.000000 -2.000000
v -6.000000 4.000000 -2.000000
v 1.000000 0.000000 -2.000000
v 1.000000 4.000000 -2.000000
v 1.000000 5.000000 -7.000000
v 1.000000 5.000000 -2.000000
v 6.999999 5.000000 -7.000000
v 6.999999 5.000000 -2.000000
v -6.000000 3.352592 5.156799
v -6.000000 3.628985 5.537222
v -6.000000 3.352592 5.917645
v -6.000000 2.905379 5.772336
v -6.000000 2.905379 5.302108
v 6.999999 4.000000 -7.000000
v 6.999999 0.000000 -7.000000
v 6.999999 0.000000 -2.000000
v 6.999999 4.000000 -2.000000
v 6.999999 2.165838 -5.209334
v 6.999999 0.039546 -5.209334
v 6.999999 0.039546 -3.790666
v 6.999999 2.165838 -3.790666
v 6.999999 5.000000 -7.000000
v 6.999999 5.000000 -2.000000
v 6.999999 4.000000 -7.000000
v 6.999999 0.000000 -7.000000
v 6.999999 0.000000 -2.000000
v 6.999999 4.000000 -2.000000
v 6.999999 2.165838 -5.209334
v 6.999999 0.039546 -5.209334
v 6.999999 0.039546 -3.790666
v 6.999999 2.165838 -3.790666
v 7.099999 4.000000 -7.000000
v 7.099999 0.000000 -7.000000
v 7.099999 0.000000 -2.000000
v 7.099999 4.000000 -2.000000
v 7.099999 5.000000 -7.000000
v 7.099999 5.000000 -2.000000
v 7.099999 2.165838 -5.209334
v 7.099999 0.039546 -5.209334
v 7.099999 0.039546 -3.790666
v 7.099999 2.165838 -3.790666
v 13.099998 4.000000 -7.000000
v 13.099998 0.000000 -7.000000
v 13.099998 0.000000 -2.000000
v 13.099998 4.000000 -2.000000
v 13.099998 5.000000 -7.000000
v 13.099998 5.000000 -2.000000
v 10.099998 5.000000 -7.000000
v 10.099998 4.000000 -7.000000
v 10.099998 5.000000 -2.000000
v 10.099998 0.000000 -7.000000
v 10.099998 0.000000 -2.000000
v 10.099998 4.000000 -2.000000
v 13.099998 4.000000 2.000000
v 13.099998 0.000000 2.000000
v 13.099998 5.000000 2.000000
v 10.099998 0.000000 2.000000
v 10.099998 5.000000 2.000000
v 10.099998 4.000000 2.000000
v 13.099998 4.000000 -12.000000
v 13.099998 0.000000 -12.000000
v 13.099998 5.000000 -12.000000
v 10.099998 4.000000 -12.000000
v 10.099998 5.000000 -12.000000
v 10.099998 0.000000 -12.000000
v 10.099998 4.000000 -9.500000
v 10.099998 5.000000 -9.500000
v 13.099998 5.000000 -9.500000
v 13.099998 0.000000 -9.500000
v 10.099998 0.000000 -9.500000
v 13.099998 4.000000 -9.500000
v 5.099998 4.000000 -9.500000
v 5.099998 4.000000 -12.000000
v 5.099998 0.000000 -12.000000
v 5.099998 5.000000 -12.000000
v 5.099998 5.000000 -9.500000
v 5.099998 0.000000 -9.500000
vt 0.919778 0.108956
vt 0.133021 0.738361
vt 0.133021 0.108956
vt -0.305515 0.108956
vt -1.406974 0.738361
vt -1.406974 0.108956
vt -1.283140 0.108956
vt 0.133021 0.738361
vt 0.133021 0.108956
vt -1.406974 0.108956
vt -0.305515 0.738361
vt -0.305515 0.108956
vt -0.047708 -1.073076
vt -1.151545 0.346144
vt -0.047708 0.346144
vt -1.151545 1.134599
vt -0.047708 1.134599
vt 0.638592 0.108956
vt -0.305515 0.738361
vt 0.919778 0.895712
vt 0.919778 0.738361
vt 0.638592 0.738361
vt -0.305515 0.108956
vt -0.305515 0.738361
vt 0.898438 1.134599
vt -0.047708 0.346144
vt -0.047708 1.134599
vt -0.305515 0.895712
vt 0.638592 0.895712
vt 0.638592 0.738361
vt -1.015974 0.566121
vt -0.993110 0.636491
vt -1.052970 0.679982
vt -1.283140 0.738361
vt -1.112829 0.636491
vt -1.283140 0.108956
vt -1.089965 0.566121
vt 0.919778 0.108956
vt 0.638014 0.449754
vt 0.919778 0.738361
vt 0.414785 0.449754
vt 0.133021 0.738361
vt 0.133021 0.895712
vt 0.133021 0.108956
vt 0.667867 0.184951
vt 1.173950 0.178715
vt 0.385495 0.178715
vt 0.919778 0.108956
vt 0.638014 0.449754
vt 0.919778 0.738361
vt 0.414785 0.449754
vt 0.133021 0.738361
vt 0.133021 0.895712
vt 0.133021 0.108956
vt 0.919778 0.108956
vt 0.638014 0.449754
vt 0.638014 0.115179
vt 0.414785 0.449754
vt 0.919778 0.895712
vt 0.133021 0.108956
vt 0.133021 0.738361
vt 1.173950 0.178715
vt 0.667867 0.184951
vt 0.385495 0.178715
vt 0.638592 0.108956
vt 0.654328 0.738361
vt 0.638592 0.738361
vt 0.914208 0.628516
vt 0.898438 0.852227
vt 0.898438 0.628516
vt 0.638592 0.895712
vt 0.654328 0.738361
vt 0.638592 0.738361
vt 0.654328 0.806886
vt 0.638592 0.583657
vt 0.638592 0.806886
vt 0.654328 0.895712
vt 0.638592 0.895712
vt 0.654328 0.108956
vt 0.638592 0.108956
vt 0.654328 0.449754
vt 0.638592 0.115179
vt 0.638592 0.449754
vt 0.654328 0.115179
vt 0.638592 0.449754
vt 0.638592 0.115179
vt 0.898438 1.134599
vt 0.914208 0.346144
vt 0.898438 0.346144
vt 1.387281 1.528826
vt 1.860354 1.923054
vt 1.860354 1.528826
vt 1.387281 1.134599
vt 1.860354 0.346144
vt 1.387281 0.346144
vt 1.387281 -0.284620
vt 0.133021 0.738361
vt 0.133021 0.895712
vt 0.919778 0.895712
vt 0.654328 0.108956
vt 1.126381 0.738361
vt 1.126381 0.108956
vt 0.654328 0.895712
vt 1.126381 0.738361
vt 0.914208 1.134599
vt 1.126381 0.895712
vt 1.126381 0.895712
vt 1.598434 0.738361
vt 1.126381 0.738361
vt 1.598434 0.108956
vt 1.126381 0.108956
vt 0.133021 0.738361
vt -0.496383 0.108956
vt 0.133021 0.108956
vt -0.496383 0.895712
vt 0.133021 0.108956
vt -0.496383 0.738361
vt 0.133021 0.895712
vt -0.496383 0.738361
vt 1.126381 0.738361
vt 1.598434 0.895712
vt 1.126381 0.895712
vt 1.126381 0.108956
vt 1.598434 0.738361
vt 1.313155 0.738361
vt 1.706534 0.108956
vt 1.313155 0.108956
vt 0.339625 0.108956
vt 1.313155 0.895712
vt 1.706534 0.738361
vt 0.919778 0.738361
vt 0.919778 0.108956
vt 1.313155 0.738361
vt 0.919778 0.738361
vt 0.919778 0.108956
vt 1.313155 0.895712
vt 0.919778 0.895712
vt 1.860354 1.134599
vt 1.313155 0.738361
vt 1.706534 0.895712
vt 1.313155 0.895712
vt 1.313155 0.108956
vt 1.706534 0.738361
vt 1.126381 0.108956
vt 0.339625 0.738361
vt 1.126381 0.738361
vt 1.387281 0.967170
vt 0.598825 0.809479
vt 1.387281 0.809479
vt 0.598825 1.923054
vt 1.387281 1.923054
vt 0.339625 0.895712
vt 1.126381 0.895712
vt 0.919778 0.738361
vt -1.283140 0.738361
vt -1.406974 0.738361
vt -1.151545 -1.073076
vt 0.133021 0.895712
vt 0.638592 0.108956
vt 0.898438 0.346144
vt 0.638592 0.895712
vt -0.305515 0.895712
vt 0.638014 0.115179
vt 0.919778 0.895712
vt 0.414785 0.115179
vt 0.891578 0.184951
vt 0.638014 0.115179
vt 0.919778 0.895712
vt 0.414785 0.115179
vt 0.919778 0.738361
vt 0.133021 0.895712
vt 0.414785 0.115179
vt 0.891578 0.184951
vt 0.914208 0.852227
vt 0.654328 0.583657
vt 0.654328 0.115179
vt 0.654328 0.449754
vt 1.860354 -0.284620
vt 1.126381 0.108956
vt 1.126381 0.895712
vt 1.598434 0.895712
vt -0.496383 0.108956
vt -0.496383 0.895712
vt 1.598434 0.108956
vt 0.339625 0.738361
vt 1.706534 0.895712
vt 1.313155 0.108956
vt 1.706534 0.108956
vt 0.339625 0.108956
vt 0.598825 0.967170
vt 0.598825 1.528826
vn 1.0000 0.0000 0.0000
vn 0.0000 0.0000 1.0000
vn -1.0000 0.0000 0.0000
vn 0.0000 0.0000 -1.0000
vn 0.0000 -1.0000 0.0000
vn 0.0000 1.0000 0.0000
usemtl Material.005
s off
f 3/1/1 10/2/1 9/3/1
f 7/4/2 4/5/2 3/6/2
f 5/7/3 12/8/3 11/9/3
f 1/10/4 6/11/4 5/12/4
f 6/13/5 10/14/5 12/15/5
f 12/15/5 4/16/5 8/17/5
f 23/18/2 8/19/2 7/4/2
f 13/20/1 12/8/1 8/21/1
f 25/22/4 11/23/4 12/24/4
f 15/25/5 14/26/5 13/27/5
f 14/28/4 25/22/4 12/24/4
f 15/29/2 8/19/2 22/30/2
f 21/31/1 9/3/1 17/32/1
f 9/3/1 10/2/1 17/32/1
f 17/32/1 10/2/1 18/33/1
f 10/2/1 2/34/1 18/33/1
f 18/33/1 2/34/1 19/35/1
f 2/34/1 1/36/1 19/35/1
f 19/35/1 1/36/1 20/37/1
f 20/37/1 1/36/1 21/31/1
f 9/3/1 21/31/1 1/36/1
f 23/38/3 26/39/3 22/40/3
f 29/41/3 25/42/3 16/43/3
f 29/41/3 24/44/3 25/42/3
f 28/45/3 23/46/3 24/47/3
f 33/48/3 36/49/3 32/50/3
f 39/51/3 35/52/3 31/53/3
f 39/51/3 34/54/3 35/52/3
f 41/55/1 46/56/1 47/57/1
f 49/58/1 46/56/1 44/59/1
f 42/60/1 49/58/1 43/61/1
f 41/62/1 48/63/1 42/64/1
f 33/65/2 40/66/2 32/67/2
f 48/68/6 37/69/6 38/70/6
f 31/71/4 43/72/4 35/73/4
f 46/74/5 39/75/5 36/76/5
f 32/67/2 44/77/2 30/78/2
f 35/73/4 42/79/4 34/80/4
f 49/81/4 38/82/4 39/83/4
f 47/84/2 36/85/2 37/86/2
f 30/87/5 45/88/5 31/89/5
f 75/90/5 70/91/5 76/92/5
f 56/93/5 55/94/5 58/95/5
f 55/94/5 66/96/5 58/95/5
f 53/97/3 55/98/3 54/99/3
f 41/100/2 57/101/2 40/66/2
f 43/72/4 60/102/4 42/79/4
f 45/103/4 61/104/4 43/72/4
f 44/105/5 58/95/5 45/88/5
f 40/66/2 56/106/2 44/77/2
f 66/107/4 62/108/4 67/109/4
f 67/109/4 63/110/4 65/111/4
f 61/112/1 65/113/1 60/114/1
f 53/97/3 64/115/3 55/98/3
f 52/116/3 62/117/3 53/97/3
f 58/118/1 67/119/1 61/112/1
f 71/120/2 70/121/2 72/122/2
f 73/123/2 68/124/2 71/120/2
f 79/125/3 69/126/3 77/127/3
f 71/120/2 82/128/2 73/123/2
f 76/129/3 68/130/3 79/125/3
f 54/99/3 79/125/3 50/131/3
f 59/132/1 74/133/1 57/134/1
f 50/131/3 77/127/3 51/135/3
f 57/134/1 75/136/1 56/137/1
f 56/93/5 76/92/5 54/138/5
f 80/139/1 83/140/1 84/141/1
f 85/142/1 81/143/1 80/139/1
f 78/144/4 80/145/4 74/146/4
f 72/147/2 81/148/2 71/149/2
f 75/90/5 83/150/5 72/151/5
f 74/146/4 84/152/4 75/153/4
f 3/1/1 4/154/1 10/2/1
f 7/4/2 8/19/2 4/5/2
f 5/7/3 6/155/3 12/8/3
f 1/10/4 2/156/4 6/11/4
f 6/13/5 2/157/5 10/14/5
f 12/15/5 10/14/5 4/16/5
f 23/18/2 22/30/2 8/19/2
f 13/20/1 14/158/1 12/8/1
f 25/22/4 24/159/4 11/23/4
f 15/25/5 16/160/5 14/26/5
f 14/28/4 16/161/4 25/22/4
f 15/29/2 13/162/2 8/19/2
f 23/38/3 27/163/3 26/39/3
f 16/43/3 15/164/3 29/41/3
f 15/164/3 22/40/3 26/39/3
f 29/41/3 15/164/3 26/39/3
f 29/41/3 28/165/3 24/44/3
f 28/45/3 27/166/3 23/46/3
f 33/48/3 37/167/3 36/49/3
f 31/53/3 30/168/3 39/51/3
f 30/168/3 32/50/3 36/49/3
f 39/51/3 30/168/3 36/49/3
f 39/51/3 38/169/3 34/54/3
f 41/55/1 40/170/1 46/56/1
f 40/170/1 44/59/1 46/56/1
f 44/59/1 45/171/1 49/58/1
f 45/171/1 43/61/1 49/58/1
f 42/60/1 48/172/1 49/58/1
f 41/62/1 47/173/1 48/63/1
f 33/65/2 41/100/2 40/66/2
f 48/68/6 47/174/6 37/69/6
f 31/71/4 45/103/4 43/72/4
f 46/74/5 49/175/5 39/75/5
f 32/67/2 40/66/2 44/77/2
f 35/73/4 43/72/4 42/79/4
f 49/81/4 48/176/4 38/82/4
f 47/84/2 46/177/2 36/85/2
f 30/87/5 44/105/5 45/88/5
f 75/90/5 72/151/5 70/91/5
f 56/93/5 54/138/5 55/94/5
f 55/94/5 64/178/5 66/96/5
f 54/99/3 50/131/3 53/97/3
f 50/131/3 51/135/3 53/97/3
f 51/135/3 52/116/3 53/97/3
f 41/100/2 59/179/2 57/101/2
f 43/72/4 61/104/4 60/102/4
f 45/103/4 58/180/4 61/104/4
f 44/105/5 56/93/5 58/95/5
f 40/66/2 57/101/2 56/106/2
f 66/107/4 64/181/4 62/108/4
f 67/109/4 62/108/4 63/110/4
f 61/112/1 67/119/1 65/113/1
f 53/97/3 62/117/3 64/115/3
f 52/116/3 63/182/3 62/117/3
f 58/118/1 66/183/1 67/119/1
f 71/120/2 68/124/2 70/121/2
f 73/123/2 69/184/2 68/124/2
f 79/125/3 68/130/3 69/126/3
f 71/120/2 81/185/2 82/128/2
f 76/129/3 70/186/3 68/130/3
f 54/99/3 76/129/3 79/125/3
f 59/132/1 78/187/1 74/133/1
f 50/131/3 79/125/3 77/127/3
f 57/134/1 74/133/1 75/136/1
f 56/93/5 75/90/5 76/92/5
f 80/139/1 81/143/1 83/140/1
f 85/142/1 82/188/1 81/143/1
f 78/144/4 85/189/4 80/145/4
f 72/147/2 83/190/2 81/148/2
f 75/90/5 84/191/5 83/150/5
f 74/146/4 80/145/4 84/152/4
